<?xml version="1.0" standalone="no"?><!DOCTYPE svg PUBLIC "-//W3C//DTD SVG 1.1//EN" "http://www.w3.org/Graphics/SVG/1.1/DTD/svg11.dtd"><svg t="1615210868894" class="icon" viewBox="0 0 1024 1024" version="1.1" xmlns="http://www.w3.org/2000/svg" p-id="6026" xmlns:xlink="http://www.w3.org/1999/xlink" width="200" height="200"><defs><style type="text/css"></style></defs><path d="M512 942.933333c-61.866667 0-123.733333-10.666667-183.466667-32l-211.2 96c-8.533333 4.266667-17.066667 6.4-27.733333 6.4-14.933333 0-29.866667-6.4-42.666667-14.933333-19.2-14.933333-27.733333-42.666667-21.333333-66.133333l51.2-209.066667C25.6 648.533333 0 563.2 0 477.866667c0-256 230.4-465.066667 512-465.066667 281.6 0 512 209.066667 512 465.066667C1024 733.866667 793.6 942.933333 512 942.933333zM512 96c-234.666667 0-426.666667 170.666667-426.666667 379.733333 0 74.666667 25.6 147.2 72.533333 211.2L168.533333 704l-51.2 209.066667 209.066667-93.866667 17.066667 6.4c53.333333 21.333333 110.933333 32 168.533333 32 234.666667 0 426.666667-170.666667 426.666667-379.733333C938.666667 266.666667 746.666667 96 512 96zM682.666667 458.666667c-36.266667 0-64-27.733333-64-64 0-36.266667 27.733333-64 64-64 36.266667 0 64 27.733333 64 64C746.666667 430.933333 718.933333 458.666667 682.666667 458.666667zM341.333333 458.666667c-36.266667 0-64-27.733333-64-64 0-36.266667 27.733333-64 64-64s64 27.733333 64 64C405.333333 430.933333 377.6 458.666667 341.333333 458.666667z" p-id="6027"></path></svg>